<svg xmlns="http://www.w3.org/2000/svg"
     width="160" height="800" viewBox="0 0 160 800"
     fill="none" stroke="#b7a06a" stroke-width="3"
     stroke-linecap="round" stroke-linejoin="round">

  <!-- 1. Hogar y tierra -->
  <g id="hogar-tierra" transform="translate(30 30)">
    <path d="M45 70 C25 58 18 35 34 18 C50 3 74 7 80 27 C83 42 72 59 45 70 Z"/>
    <path d="M45 70 C50 50 58 34 71 20"/>
    <path d="M49 55 C39 48 31 38 27 27"/>
    <path d="M57 43 C65 38 72 31 77 23"/>
  </g>

  <!-- 2. Razón -->
  <g id="razon" transform="translate(24 180)">
    <path d="M30 62 L30 24 L56 8 L82 24 L82 62 Z"/>
    <path d="M30 24 L56 40 L82 24"/>
    <path d="M56 8 L56 62"/>
    <path d="M42 62 L42 42 L52 42 L52 62"/>
    <path d="M64 30 L73 30 L73 41 L64 41 Z"/>
    <path d="M39 30 L48 30 L48 41 L39 41 Z"/>
    <path d="M24 62 H88"/>
  </g>

  <!-- 3. Norma -->
  <g id="norma" transform="translate(20 330)">
    <circle cx="42" cy="36" r="14"/>
    <circle cx="74" cy="36" r="14"/>
    <path d="M20 80 C20 60 32 50 42 50 C52 50 64 60 64 80"/>
    <path d="M52 80 C52 60 64 50 74 50 C84 50 96 60 96 80"/>
    <path d="M20 80 H96"/>
    <path d="M58 24 V8"/>
    <path d="M50 16 H66"/>
  </g>

  <!-- 4. Ecosistema -->
  <g id="ecosistema" transform="translate(22 480)">
    <circle cx="58" cy="46" r="8"/>
    <path d="M58 38 C44 28 40 12 52 6 C64 12 68 28 58 38 Z"/>
    <path d="M66 44 C80 32 96 34 98 48 C88 60 72 60 66 44 Z"/>
    <path d="M64 54 C74 68 68 84 54 84 C44 72 48 58 64 54 Z"/>
    <path d="M50 52 C36 64 20 60 20 46 C30 34 46 36 50 52 Z"/>
    <path d="M58 46 L52 16"/>
    <path d="M58 46 L90 46"/>
    <path d="M58 46 L58 78"/>
    <path d="M58 46 L28 48"/>
  </g>

  <!-- 5. Búsqueda -->
  <g id="busqueda" transform="translate(24 630)">
    <circle cx="50" cy="46" r="28"/>
    <path d="M76 66 L94 84"/>
    <path d="M38 46 C42 35 50 29 61 28"/>
    <path d="M50 18 V8"/>
    <path d="M50 84 V94"/>
    <path d="M22 46 H12"/>
    <path d="M88 46 H98"/>
  </g>
</svg>
